<?xml version="1.0" standalone="no"?>
<!DOCTYPE svg PUBLIC "-//W3C//DTD SVG 20010904//EN"
 "http://www.w3.org/TR/2001/REC-SVG-20010904/DTD/svg10.dtd">
<svg version="1.0" xmlns="http://www.w3.org/2000/svg"
 width="1000.000000pt" height="1000.000000pt" viewBox="0 0 1000.000000 1000.000000"
 preserveAspectRatio="xMidYMid meet">

<defs>
    <filter id="blendDifference">
        <feBlend mode="difference" in="SourceGraphic" in2="BackgroundImageFix" />
    </filter>
</defs>

<g transform="translate(0.000000,1000.000000) scale(0.100000,-0.100000)"
fill="#000000" stroke="none" filter="url(#blendDifference)">
    <path d="M4470 6469 c-854 -35 -1681 -167 -2260 -359 -531 -176 -852 -385
-969 -630 -34 -71 -36 -80 -36 -180 0 -93 3 -112 27 -162 36 -78 80 -139 145
-205 369 -368 1317 -654 2533 -763 1656 -147 3407 52 4305 490 499 243 688
538 539 839 -73 148 -257 302 -514 431 -776 389 -2263 602 -3770 539z m805
-173 c165 -49 363 -162 454 -260 l24 -26 -748 0 -749 0 44 46 c91 92 257 188
407 234 113 34 158 39 323 36 133 -3 168 -7 245 -30z m-1227 -1 c-3 -3 -45
-25 -94 -49 -119 -58 -282 -168 -375 -255 -68 -62 -156 -168 -203 -243 l-17
-26 82 -4 82 -3 51 62 51 63 163 0 c89 0 162 -1 162 -3 0 -2 -12 -27 -26 -56
-14 -29 -24 -55 -22 -56 2 -2 36 -5 76 -6 l74 -2 32 59 33 59 884 3 884 2 34
-62 33 -63 77 2 c42 1 77 2 79 3 1 0 -11 27 -28 60 l-30 60 164 0 165 0 49
-61 50 -61 81 -1 c44 -1 81 2 81 6 0 24 -96 145 -189 238 -119 118 -250 211
-404 285 -53 26 -96 48 -94 50 5 5 313 -25 517 -52 994 -127 1739 -374 2047
-677 99 -97 137 -169 138 -262 0 -58 -5 -80 -29 -129 -170 -346 -977 -659
-2090 -811 -140 -19 -580 -65 -584 -61 -1 2 32 20 74 40 230 109 438 277 567
458 26 36 47 71 47 77 0 7 -27 11 -79 11 l-79 0 -52 -65 -52 -65 -164 0 -164
0 29 59 c17 32 27 61 24 65 -4 3 -39 6 -79 6 l-73 0 -33 -62 -33 -63 -882 -3
-882 -2 -36 65 -37 65 -74 0 c-44 0 -74 -4 -74 -10 0 -6 11 -33 25 -60 14 -27
25 -52 25 -55 0 -3 -72 -5 -159 -5 l-159 0 -51 57 c-28 31 -51 61 -51 65 0 4
-38 8 -85 8 -47 0 -85 -4 -85 -8 0 -12 75 -118 129 -181 101 -119 293 -261
468 -347 52 -25 93 -47 91 -49 -4 -5 -437 40 -584 60 -853 115 -1544 332
-1891 592 -94 70 -155 139 -194 218 -28 58 -31 71 -27 137 5 97 34 153 128
249 338 344 1234 611 2445 728 122 11 129 12 123 6z m100 -185 l-97 -101 -108
3 -108 3 80 47 c44 26 123 65 175 88 52 23 104 45 115 50 44 19 36 6 -57 -90z
m1699 69 c88 -34 255 -120 293 -149 l25 -20 -111 0 c-106 0 -112 1 -127 23 -8
13 -50 58 -92 100 -42 42 -74 77 -71 77 3 0 40 -14 83 -31z m-1698 -1690 c53
-54 96 -99 94 -99 -39 0 -403 180 -403 200 0 3 48 4 106 2 l107 -3 96 -100z
m1556 55 c-126 -113 -287 -201 -453 -246 -114 -32 -383 -32 -497 -1 -186 51
-363 150 -469 262 l-30 31 750 0 749 -1 -50 -45z m450 37 c-38 -35 -358 -191
-392 -191 -3 0 37 45 88 99 l94 99 110 1 c63 1 105 -3 100 -8z"/>
<path d="M7435 5563 c-121 -27 -193 -72 -222 -140 -20 -49 -17 -189 6 -239 25
-55 79 -97 154 -120 86 -26 365 -27 448 -2 105 33 164 95 171 183 l3 40 -102
3 c-96 3 -102 2 -108 -19 -11 -33 -69 -51 -170 -53 -147 -2 -205 22 -205 84 0
67 37 90 154 97 106 7 191 -10 212 -43 16 -23 21 -24 120 -24 l103 0 -6 38
c-15 98 -80 161 -193 186 -65 15 -312 21 -365 9z"/>
<path d="M2000 5393 c6 -186 15 -216 82 -280 59 -56 105 -68 268 -68 131 0 150 2 198 24 116 52 152 137 152 354 l0 137 -100 0 -100 0 0 -132 c0 -86 -5 -142 -13 -158 -21 -43 -72 -61 -156 -58 -68 3 -75 6 -102 36 l-29 32 0 140 0 140 -102 0 -103 0 5 -167z"/> <path d="M2830 5306 l0 -256 105 0 105 0 0 70 0 70 79 0 79 0 52 -70 52 -70 120 0 c65 0 117 3 115 8 -3 4 -30 38 -60 76 l-56 70 30 18 c49 30 69 74 69 154 0 82 -21 124 -80 158 -33 20 -54 21 -322 24 l-288 3 0 -255z m468 85 c8 -5 12 -17 10 -27 -3 -17 -15 -19 -136 -22 l-132 -3 0 31 0 30 123 0 c67 0 128 -4 135 -9z"/> <path d="M3660 5304 l0 -255 298 3 c282 3 299 4 345 25 39 18 52 31 68 69 15 33 19 56 14 82 -7 36 -56 92 -81 92 -20 0 -17 13 5 27 46 29 51 131 8 171 -41 39 -69 42 -368 42 l-289 0 0 -256z m464 100 c9 -3 16 -12 16 -19 0 -21 -25 -25 -156 -25 l-124 0 0 25 0 25 124 0 c68 0 131 -3 140 -6z m39 -157 c12 -33 -8 -38 -154 -38 l-144 -1 -3 26 -3 26 149 0 c116 0 151 -3 155 -13z"/> <path d="M4563 5343 c-72 -120 -141 -235 -153 -255 l-22 -38 109 0 108 0 19 35 19 35 144 0 144 0 20 -35 21 -35 108 0 108 0 -152 253 -152 252 -95 3 -94 3 -132 -218z m265 -35 l32 -58 -71 0 c-39 0 -69 4 -67 8 15 40 64 120 69 114 3 -4 20 -33 37 -64z"/> <path d="M5250 5305 l0 -255 96 0 95 0 -3 135 c-2 74 -1 135 2 135 3 0 78 -61 165 -135 l160 -135 118 0 117 0 0 255 0 255 -95 0 -94 0 -3 -135 -3 -134 -165 134 -165 135 -112 0 -113 0 0 -255z"/> <path d="M6337 5308 l3 -253 90 -3 90 -3 0 136 c0 74 3 135 6 135 4 0 79 -61 167 -135 l161 -135 118 0 118 0 0 255 0 255 -95 0 -94 0 -3 -136 -3 -136 -167 136 -167 136 -113 0 -113 0 2 -252z"/> <path d="M5239 3705 c-80 -44 -45 -175 47 -175 18 0 36 -4 39 -10 7 -12 45 -14 45 -2 0 4 -5 13 -11 19 -8 8 -8 17 0 31 45 84 -41 181 -120 137z m75 -51 c3 -9 6 -26 6 -38 0 -19 -4 -22 -25 -18 -21 4 -24 1 -18 -14 6 -17 5 -17 -10 -5 -17 13 -24 71 -10 84 12 13 51 7 57 -9z"/> <path d="M2880 3620 c0 -89 0 -90 25 -90 21 0 25 5 25 29 0 27 3 30 37 33 29 2 41 9 53 31 13 24 13 30 0 55 -14 24 -22 27 -78 30 l-62 3 0 -91z m90 31 c0 -10 -7 -22 -16 -25 -23 -9 -24 -8 -24 19 0 18 5 25 20 25 13 0 20 -7 20 -19z"/> <path d="M3180 3619 c0 -88 1 -90 23 -87 16 2 23 11 25 31 4 35 17 34 32 -3 10 -24 19 -30 42 -30 l30 0 -20 34 c-18 30 -19 36 -6 47 19 15 18 64 -2 83 -10 11 -34 16 -70 16 l-54 0 0 -91z m88 34 c-5 -26 -38 -29 -38 -4 0 15 6 21 21 21 14 0 19 -5 17 -17z"/> <path d="M3480 3620 l0 -90 65 0 c58 0 65 2 65 19 0 16 -8 20 -42 23 -56 4 -64 28 -9 28 34 0 41 3 41 19 0 16 -8 20 -37 23 -53 4 -54 26 -1 30 31 2 44 8 46 21 3 15 -5 17 -62 17 l-66 0 0 -90z"/> <path d="M3760 3620 c0 -89 0 -90 25 -90 23 0 25 3 26 53 l0 52 24 -53 c29 -62 44 -63 65 -4 8 23 17 42 21 42 3 0 5 -19 5 -42 -1 -37 2 -43 22 -46 21 -3 22 -1 22 88 l0 91 -32 -3 c-27 -3 -33 -9 -47 -45 -8 -24 -18 -43 -22 -43 -3 0 -14 20 -23 45 -16 41 -21 45 -52 45 l-34 0 0 -90z"/> <path d="M4130 3620 c0 -89 0 -90 25 -90 25 0 25 1 25 90 0 89 0 90 -25 90 -25 0 -25 -1 -25 -90z"/> <path d="M4332 3639 c4 -82 25 -109 84 -109 56 0 74 27 74 110 0 68 -1 70 -25 70 -24 0 -25 -2 -25 -64 0 -50 -4 -65 -16 -70 -30 -11 -44 13 -44 75 0 57 -1 59 -26 59 -26 0 -26 0 -22 -71z"/> <path d="M4650 3621 l0 -91 26 0 c25 0 26 2 22 45 -2 25 -1 45 2 45 3 0 13 -19 21 -42 22 -61 42 -60 67 4 l21 53 0 -52 c1 -50 3 -53 26 -53 25 0 25 1 25 90 l0 90 -34 0 c-30 0 -35 -4 -50 -45 -10 -25 -21 -45 -25 -45 -3 0 -13 19 -21 43 -13 36 -19 42 -47 45 l-33 3 0 -90z"/> <path d="M5530 3636 c0 -66 3 -77 22 -90 12 -9 36 -16 53 -16 17 0 41 7 53 16 19 13 22 24 22 90 0 73 0 74 -26 74 -24 0 -25 -2 -23 -60 2 -64 -7 -85 -34 -74 -13 5 -17 20 -17 70 0 62 -1 64 -25 64 -24 0 -25 -2 -25 -74z"/> <path d="M5862 3620 l-31 -90 29 0 c19 0 29 6 33 20 3 13 14 20 31 20 15 0 30 -8 36 -20 13 -25 66 -29 56 -4 -3 9 -16 49 -29 90 l-22 74 -37 0 -36 0 -30 -90z m78 -2 c0 -10 -7 -18 -16 -18 -11 0 -14 5 -10 16 3 9 6 23 6 32 0 15 2 15 10 2 5 -8 10 -23 10 -32z"/> <path d="M6170 3620 l0 -90 60 0 c53 0 60 2 60 20 0 16 -7 20 -35 20 l-35 0 0 70 c0 68 -1 70 -25 70 -25 0 -25 -1 -25 -90z"/> <path d="M6448 3620 c3 -88 4 -90 28 -90 24 0 24 1 24 90 l0 90 -27 0 -28 0 3 -90z"/> <path d="M6650 3690 c0 -15 7 -20 25 -20 24 0 25 -2 25 -70 0 -68 1 -70 25 -70 24 0 25 2 25 69 0 68 0 70 27 73 17 2 29 10 31 21 3 15 -6 17 -77 17 -74 0 -81 -2 -81 -20z"/> <path d="M6981 3653 c18 -32 33 -71 33 -88 1 -23 6 -31 24 -33 18 -3 22 1 22 23 0 15 16 56 36 91 l36 64 -30 0 c-23 0 -32 -6 -42 -30 -7 -16 -16 -30 -20 -30 -4 0 -13 14 -20 30 -10 24 -19 30 -42 30 l-30 0 33 -57z"/> </g> </svg>





    